<?xml version="1.0" encoding="UTF-8"?>
<svg width="130px" height="40px" viewBox="0 0 130 40" version="1.1" xmlns="http://www.w3.org/2000/svg" xmlns:xlink="http://www.w3.org/1999/xlink">
    <!-- Generator: Sketch 51.3 (57544) - http://www.bohemiancoding.com/sketch -->
    <title>Branding / Lockup / Dark</title>
    <desc>Created with Sketch.</desc>
    <defs>
        <path d="M116.045032,16.1289032 C118.368258,16.1289032 119.255355,17.8069677 119.255355,20.3237419 L119.255355,25.9947097 L115.803742,25.9947097 L115.803742,20.7663226 C115.803742,19.8953548 115.663097,19.0495484 114.868258,19.0495484 C114.132129,19.0495484 113.788258,20.3540645 113.788258,21.1966452 L113.788258,25.9966452 L110.273419,25.9966452 L110.273419,20.7663226 C110.273419,19.6514839 110.116645,19.0495484 109.332129,19.0495484 C108.653419,19.0495484 108.257935,20.2501935 108.257935,21.1966452 L108.257935,25.9947097 L104.756645,25.9947097 L104.756645,16.3508387 L107.321806,16.3508387 C107.321806,16.3508387 107.490839,17.072129 107.268258,18.0166452 C107.156,18.496 106.920516,19.076 107.170839,19.076 C107.343742,19.076 107.372129,18.7605161 107.596645,18.2469677 C107.925032,17.496 108.617935,16.1289032 110.236,16.1289032 C111.77471,16.1289032 112.499226,17.0637419 112.739226,17.9392258 C112.921806,18.6043871 112.734065,19.076 112.95729,19.076 C113.115355,19.076 113.197935,18.5592258 113.393419,18.1224516 C113.743097,17.3405161 114.505032,16.1289032 116.045032,16.1289032 Z M52.6367742,18.1224516 C52.9864516,17.3405161 53.7483871,16.1289032 55.2883871,16.1289032 C57.6116129,16.1289032 58.4987097,17.8069677 58.4987097,20.3237419 L58.4987097,26 L55.0470968,26 L55.0470968,20.7663226 C55.0470968,19.8953548 54.9064516,19.0495484 54.1116129,19.0495484 C53.3754839,19.0495484 53.0316129,20.3540645 53.0316129,21.1966452 L53.0316129,25.9966452 L49.5167742,25.9966452 L49.5167742,20.7663226 C49.5167742,19.6514839 49.36,19.0495484 48.5754839,19.0495484 C47.8967742,19.0495484 47.5012903,20.2501935 47.5012903,21.1966452 L47.5012903,26 L44,26 L44,16.3508387 L46.5651613,16.3508387 C46.5651613,16.3508387 46.7341935,17.072129 46.5116129,18.0166452 C46.3993548,18.496 46.163871,19.076 46.4141935,19.076 C46.5870968,19.076 46.6154839,18.7605161 46.84,18.2469677 C47.1683871,17.496 47.8612903,16.1289032 49.4793548,16.1289032 C51.0180645,16.1289032 51.7425806,17.0637419 51.9825806,17.9392258 C52.1651613,18.6043871 51.9774194,19.076 52.2006452,19.076 C52.3587097,19.076 52.4412903,18.5592258 52.6367742,18.1224516 Z M60.0614839,17.1168387 C60.0614839,17.1168387 61.9853548,16.1310323 64.6672903,16.1310323 C67.8447097,16.1310323 68.8930968,18.2878065 68.8930968,21.2510323 L68.8930968,25.9968387 L66.2543871,25.9968387 C66.1330968,25.5084516 66.0969677,24.9284516 66.1130968,24.1613548 C66.122129,23.7232903 66.1866452,23.5110323 65.9956774,23.5110323 C65.8279355,23.5110323 65.7937419,23.8078065 65.6072903,24.2471613 C65.3389032,24.882 64.4640645,26.2194194 62.4737419,26.2194194 C61.109871,26.2194194 59.4911613,25.3949032 59.4911613,23.4226452 C59.4911613,21.3426452 60.9311613,20.045871 63.7847097,20.045871 C64.9956774,20.045871 65.3924516,20.1516774 65.3924516,20.1516774 C65.4550323,19.5349032 65.286,18.7936129 63.909871,18.7936129 C62.1866452,18.7936129 60.0614839,20.0149032 60.0614839,20.0149032 L60.0614839,17.1168387 Z M63.8150323,23.7413548 C64.706,23.5355484 65.4124516,22.4252258 65.4124516,22.1000645 C65.4124516,22.1000645 64.9466452,22.0574839 64.4524516,22.0574839 C63.329871,22.0574839 62.5440645,22.3613548 62.5440645,23.1213548 C62.5440645,23.6761935 62.9782581,23.9342581 63.8150323,23.7413548 Z M75,25.9971613 L75,13.4313548 L78.5006452,13.4313548 L78.5006452,25.9971613 L75,25.9971613 Z M82.5864516,21.1752258 C82.5864516,22.0784516 83.1948387,22.7571613 84.8870968,22.7571613 C86.4851613,22.7571613 87.6548387,21.9590968 88.0748387,21.7242581 L88.0748387,24.995871 C88.0748387,24.995871 86.7477419,26.2190968 84.5219355,26.2190968 C81.6716129,26.2190968 79.6664516,24.3661935 79.6664516,21.0255484 C79.6664516,17.6836129 81.8754839,16.1313548 84.5283871,16.1313548 C87.0458065,16.1313548 88.0696774,17.1165161 88.0696774,17.1165161 L88.0696774,20.4713548 C87.7787097,20.2952258 86.4825806,19.6016774 84.8709677,19.6016774 C83.3922581,19.6016774 82.5864516,20.308129 82.5864516,21.1752258 Z M92.3990968,18.3852903 C92.5545806,18.0517419 93.3249032,16.1310968 95.352,16.1310968 C98.1429677,16.1310968 98.5532903,18.4169032 98.5532903,20.8923871 L98.5532903,25.9969032 L95,25.9969032 L95,20.6827097 C95,19.5923871 94.8242581,19.0510968 94.0932903,19.0510968 C93.2113548,19.0510968 93,20.4175484 93,21.1988387 L93,25.9969032 L89.3984516,25.9969032 L89.3984516,13.4310968 L92.4210323,13.4310968 C92.4210323,13.4310968 92.5668387,13.7917419 92.5668387,14.867871 C92.5668387,16.4536774 92.2210323,17.7446452 92.0584516,18.2362581 C91.972,18.4969032 91.7384516,19.0756129 91.9603871,19.0756129 C92.115871,19.0756129 92.2429677,18.7181935 92.3990968,18.3852903 Z M99.8823226,16.3642581 C99.8823226,16.3642581 100.477806,16.708129 101.636516,16.708129 C102.794581,16.708129 103.382968,16.3642581 103.382968,16.3642581 L103.382968,25.9971613 L99.8823226,25.9971613 L99.8823226,16.3642581 Z M101.622194,12.8885806 C102.805419,12.8885806 103.765419,13.5143871 103.765419,14.2866452 C103.765419,15.0595484 102.805419,15.6853548 101.622194,15.6853548 C100.438968,15.6853548 99.4796129,15.0595484 99.4796129,14.2866452 C99.4796129,13.5143871 100.438968,12.8885806 101.622194,12.8885806 Z M70.2168387,25.9971613 L70.2168387,16.3642581 C70.2168387,16.3642581 70.8123226,16.708129 71.9710323,16.708129 C73.1290968,16.708129 73.7174839,16.3642581 73.7174839,16.3642581 L73.7174839,25.9971613 L70.2168387,25.9971613 Z M71.9570323,12.8885806 C73.1402581,12.8885806 74.0996129,13.5143871 74.0996129,14.2866452 C74.0996129,15.0595484 73.1402581,15.6853548 71.9570323,15.6853548 C70.7738065,15.6853548 69.8138065,15.0595484 69.8138065,14.2866452 C69.8138065,13.5143871 70.7738065,12.8885806 71.9570323,12.8885806 Z M123.418903,18.2472903 C123.777613,17.4782581 124.602129,16.1292258 126.401484,16.1292258 C128.72471,16.1292258 130,17.8943871 130,21.1743871 C130,24.0685806 128.975677,26.209871 126.44471,26.209871 C125.262129,26.209871 124.414194,25.4595484 124,24.7563226 L124,29 L120.578903,29 L120.578903,16.3511613 L123.144065,16.3511613 C123.144065,16.3511613 123.313097,17.0724516 123.090516,18.0169677 C122.978258,18.4963226 122.729226,19.0763226 122.980194,19.0763226 C123.152452,19.0763226 123.182129,18.7550323 123.418903,18.2472903 Z M125.440839,23.9247097 C126.420194,23.9247097 126.802774,23.0930968 126.802774,21.4879355 C126.802774,19.9447097 126.38729,19.0511613 125.413097,19.0511613 C124.653742,19.0511613 124.04729,20.109871 124.04729,21.4879355 C124.04729,22.9066452 124.637613,23.9247097 125.440839,23.9247097 Z M36.2150039,25.323652 C36.7882395,25.323652 37.6887548,25.9841622 37.6887548,27.5762627 C37.6887548,29.1610904 37.0308893,30.9561706 36.8761752,31.3541957 C34.5071984,37.0310127 28.8541835,40.1907505 22.1194924,39.9910767 C15.8410095,39.8046264 10.4868441,36.4914969 8.1429917,31.0910495 C6.72610154,31.0923718 5.26557408,30.4695485 4.15546742,29.4857255 C2.98519417,28.4490089 2.26319508,27.1074923 2.12236559,25.7077926 C2.01327232,24.6188434 2.1474901,23.6052677 2.48865451,22.7212817 L1.17226239,21.6058856 C-4.84968606,16.5214781 13.9857627,-4.41517312 20.0103559,0.839155419 C20.0407697,0.865602272 22.059987,2.84647157 22.0646152,2.85176094 C22.0725492,2.84779391 23.1786889,2.37836227 23.1839782,2.37637876 C28.4680595,0.188562833 32.7557555,1.24511461 32.7610449,4.73609922 C32.7643508,6.55167569 31.6073009,8.66808511 29.7540377,10.5887878 C30.4257878,11.2122724 30.9633201,12.1861777 31.2720871,13.2995903 C31.5312662,14.1220874 31.5768871,14.9571468 31.6006892,15.4920344 C31.6330866,16.2318851 31.6681287,17.9555587 31.6720957,17.9859726 C31.7190389,18.0005184 32.2539265,18.1472984 32.4165746,18.1929192 C33.8347871,18.5909444 34.8437346,19.121865 35.3369684,19.6395621 C35.8308634,20.1579204 36.0754968,20.6584271 36.1640937,21.2468696 C36.2474013,21.7209295 36.2361614,22.5586335 35.6106933,23.4948521 C35.6106933,23.4948521 35.7720191,23.8472564 35.9280556,24.347102 C36.084092,24.8469475 36.1978135,25.2621631 36.2150039,25.323652 Z M14.1464274,11.2334299 C14.0935336,11.2942576 14.172213,11.3802099 14.2370078,11.3326056 C15.5269531,10.3950646 17.294264,9.52297963 19.6103472,8.95767815 C22.2047835,8.32493719 24.7026888,8.59006689 26.228011,8.93982652 C26.3047069,8.95767815 26.3529724,8.82544388 26.2848718,8.78709595 C25.2765855,8.22179446 23.7294446,7.83765392 22.6319002,7.82971986 C22.5776841,7.82971986 22.5472702,7.76690859 22.5796676,7.72327128 C22.7694238,7.46805915 23.0292641,7.2154917 23.2666246,7.03366959 C23.3201795,6.99267696 23.2877821,6.90672469 23.2210038,6.91069172 C21.6579948,7.00656156 19.8761381,7.7550075 18.8519837,8.45320443 C18.8010735,8.48758533 18.7356175,8.44262568 18.7481798,8.38245909 C18.8281815,7.99765738 19.0794266,7.49120014 19.2103385,7.25450081 C19.2414136,7.19830125 19.181247,7.13681231 19.1237251,7.16590385 C17.4774085,8.00823612 15.6393522,9.50777269 14.1464274,11.2334299 Z M21.5826213,27.9504857 C21.5832824,27.9511469 21.5832824,27.9524692 21.5839436,27.9531304 L21.5832824,27.9511469 L21.5826213,27.9504857 Z M27.7401098,28.6764518 C27.7401098,28.6764518 25.2924536,29.8130053 21.4054274,28.6109959 C21.5131983,29.5227511 22.4018125,29.931355 22.8262845,30.0966478 C23.3611721,30.3042556 23.9456476,30.4007866 23.9456476,30.4007866 C28.7622807,31.2292343 33.2655186,28.4754557 34.2797554,27.781887 C34.355129,27.7296545 34.4060392,27.7805647 34.3445502,27.8724675 C34.2863672,27.9604033 34.2830613,27.9656926 34.2453745,28.013297 C33.004356,29.6139928 29.6687466,31.4679172 25.328818,31.467256 C23.4358845,31.4665948 21.5436122,30.7994729 20.8493823,29.7746574 C19.771673,28.1852015 20.7964886,25.8644902 22.5915687,26.1064789 C22.5935522,26.10714 23.2064581,26.1759019 23.3783626,26.1950758 C25.6230393,26.4449986 28.8720352,26.1309422 31.5504402,24.8879401 C34.0007411,23.7500643 34.926381,22.4991281 34.787535,21.4855525 C34.7498483,21.2124887 34.6275316,20.9268627 34.3650465,20.6571048 C33.9247064,20.2260211 33.2265095,19.8908072 32.0489634,19.5602216 C31.6595335,19.4504671 31.3950649,19.3810441 31.1114224,19.2871578 C30.6056264,19.1205426 30.3557036,18.986986 30.2988429,18.0355605 C30.2743795,17.6196837 30.2016507,16.1710573 30.1752038,15.5720361 C30.1289218,14.5234184 30.0026381,13.0886766 29.1133627,12.4969283 C28.8812916,12.3428753 28.6234347,12.268163 28.3523545,12.2536172 C28.0865636,12.241055 27.9543294,12.2886593 27.9007745,12.2979157 C27.3929949,12.383868 27.0928231,12.654287 26.7186001,12.9663599 C25.6084935,13.8913386 24.6709525,14.0427468 23.6289465,13.9977872 C23.0061231,13.9720015 22.3462742,13.8748093 21.5905553,13.8298497 C21.4431141,13.8212544 21.2956729,13.811998 21.1482317,13.8047251 C19.4027394,13.7148058 17.5309634,15.2229376 17.2195517,17.3631492 C16.7864845,20.3423872 18.9438865,21.8822553 19.5673711,22.7860765 C19.6467116,22.8938474 19.7386144,23.046578 19.7386144,23.1907133 C19.7386144,23.3639402 19.6268765,23.5008027 19.517122,23.61783 L19.517122,23.6184912 C17.7365877,25.4492746 17.166658,28.3584284 17.8377469,30.7829437 C17.9217156,31.0857601 18.0281642,31.3753532 18.1537868,31.6517228 C19.7280357,35.3311412 24.6121083,37.0448973 29.3837818,35.4858553 C30.0231344,35.2775863 30.6281062,35.0190684 31.1967135,34.7208801 C32.2664888,34.1965712 33.2020462,33.4752333 33.9723108,32.6454633 C35.2377927,31.3224595 35.991528,29.8844118 36.2837657,28.1131338 C36.4272399,27.164353 36.2169874,26.7980641 35.9307002,26.6215313 C35.6272226,26.435081 35.2635784,26.4992146 35.2635784,26.4992146 C35.2635784,26.4992146 35.0982855,25.365967 34.6288539,24.3352009 C33.2384106,25.4327453 31.4479586,26.2043322 30.0846234,26.5957456 C28.5116968,27.0466645 26.3827251,27.3937794 24.0077977,27.2522888 C22.6894221,27.1465014 21.8179983,26.7616997 21.4900573,27.8268467 C24.5003703,28.9290193 27.686555,28.4569429 27.686555,28.4569429 C27.7480439,28.4509924 27.8035823,28.495952 27.8095328,28.557441 C27.8148222,28.60769 27.7837472,28.657939 27.7401098,28.6764518 Z M28.3499743,18.9021577 C28.1278207,18.6185152 27.9288081,18.1609847 27.816409,17.6254359 C27.6180576,16.6733492 27.6385539,15.9837475 28.194599,15.8938282 C28.7506441,15.8039089 29.020402,16.3804503 29.2187534,17.3318758 C29.3529712,17.9725508 29.3271855,18.5609933 29.1784219,18.9021577 C28.9212263,18.8657933 28.6415508,18.8671157 28.3499743,18.9021577 Z M23.5742677,19.655298 C23.1762425,19.4807488 22.6598677,19.2857032 22.035722,19.3240512 C21.1517359,19.3782672 20.3847772,19.7657136 20.1652683,19.7405891 C20.0720431,19.7273657 20.0323729,19.6876954 20.0204718,19.6348017 C19.9841074,19.47017 20.2366748,19.2004121 20.5024657,19.0053666 C21.3097559,18.4255193 22.3550677,18.2998968 23.2317809,18.6774256 C23.6602199,18.8599089 24.0641956,19.1852052 24.2612247,19.5058733 C24.3557722,19.6612485 24.374285,19.7815817 24.312796,19.844393 C24.2169262,19.9455522 23.9722928,19.8298472 23.5742677,19.655298 Z M22.7735892,20.1121674 C23.4876542,20.0275374 24.0113019,20.3601066 24.1322963,20.5571357 C24.1845288,20.6417656 24.1640325,20.697304 24.1475032,20.7230897 C24.0899813,20.8123478 23.9670034,20.7964797 23.7065019,20.7673882 C23.2350868,20.7131721 22.7590434,20.6820971 22.0377055,20.9399539 C22.0377055,20.9399539 21.7752205,21.0457413 21.6581932,21.0457413 C21.6244734,21.0457413 21.5967042,21.0338402 21.5729021,21.0133439 C21.5557116,20.998137 21.5338929,20.9690454 21.5332318,20.9181352 C21.5325706,20.8116866 21.6291016,20.6609396 21.7857992,20.5240771 C21.9696048,20.3647348 22.2552309,20.1941526 22.7735892,20.1121674 Z M26.7374435,21.7892946 C26.3850392,21.6160677 26.2018948,21.2682916 26.3281785,21.0110959 C26.4544622,20.7545614 26.8419086,20.6864608 27.1936517,20.8596877 C27.5460561,21.0322534 27.7292005,21.3806907 27.6029168,21.6378863 C27.4766331,21.8944208 27.0891867,21.9625215 26.7374435,21.7892946 Z M29.0001702,19.8118634 C29.2864573,19.8164916 29.5125779,20.138482 29.5059662,20.5305566 C29.4993545,20.9226312 29.261994,21.2366876 28.9757068,21.2320594 C28.6900808,21.22677 28.463299,20.9054407 28.4705719,20.5133661 C28.4765225,20.1212915 28.713883,19.8072352 29.0001702,19.8118634 Z M6.38956534,19.4392272 C8.1105943,14.8202843 10.9833837,10.5636633 14.7871024,7.63533549 C17.6096428,5.2809044 20.6536756,3.59227283 20.6536756,3.59227283 C20.6536756,3.59227283 19.0139707,1.69074409 18.5194145,1.55057577 C15.4740594,0.728078636 8.89606584,5.26437511 4.69630557,11.2578932 C2.99709526,13.6830696 0.564645945,17.9773774 1.72764631,20.1863508 C1.87112049,20.4600757 2.68237771,21.1629009 3.11742844,21.5265451 C3.84603924,20.4680098 5.03746997,19.7017122 6.38956534,19.4392272 Z M8.66135002,29.5743225 C10.8623894,29.1987772 11.4382696,26.8086428 11.0752865,24.4614846 C10.6660215,21.8115099 8.87292484,20.8766137 7.6563696,20.8098354 C7.31784988,20.7926449 7.00445467,20.8223976 6.74461434,20.8752913 C4.5733277,21.3129867 3.34685489,23.1602994 3.58752125,25.5603514 C3.80636896,27.7322992 6.00344128,29.5637437 8.03720429,29.6179598 C8.24811794,29.6232492 8.45638691,29.6087034 8.66135002,29.5743225 Z M9.79426709,26.8823634 C9.82071394,26.911455 9.86038422,26.9788944 9.81277989,27.08931 C9.73211698,27.2777439 9.41211006,27.5342783 8.95391833,27.5177491 C8.48316435,27.4807235 7.95951666,27.1388979 7.88877132,26.2873092 C7.85306807,25.8661431 8.01241036,25.3530741 8.11026372,25.0852998 C8.29935872,24.5676026 8.12811534,24.0247809 7.68579173,23.7345267 C7.42529022,23.5639445 7.11387853,23.5064226 6.80973972,23.5712174 C6.51155145,23.635351 6.25700049,23.8105614 6.09303,24.0664347 C5.95815105,24.2780096 5.87550463,24.5418169 5.83054498,24.6839688 C5.8186439,24.7216555 5.8093875,24.7514082 5.80211461,24.7712434 C5.70293892,25.0390178 5.54359663,25.1176971 5.4358257,25.1031514 C5.38491551,25.0958785 5.31483135,25.0621588 5.2698717,24.9391809 C5.147555,24.603967 5.2467307,23.6538638 5.87881049,22.9563281 C6.28014148,22.5140045 6.90825425,22.2872227 7.51917655,22.3645797 C8.15522337,22.4452426 8.68416043,22.8300444 9.00879555,23.4482395 C9.43921809,24.268092 9.05573872,25.1295982 8.82631227,25.6439895 C8.80118776,25.6995279 8.77870793,25.7510993 8.75953396,25.7967201 C8.61539861,26.1385457 8.60812573,26.4367339 8.73771531,26.6364077 C8.83821335,26.7897994 9.01606844,26.8797187 9.22632092,26.8843469 C9.32483545,26.8856693 9.41409358,26.865173 9.49277296,26.8466602 C9.60649443,26.8202133 9.72352176,26.7931053 9.79426709,26.8823634 Z" id="path-1"></path>
    </defs>
    <g id="Page-1" stroke="none" stroke-width="1" fill="none" fill-rule="evenodd">
        <g id="Desktop-HD" transform="translate(-60.000000, -126.000000)">
            <g id="Branding-/-Lockup-/-Dark" transform="translate(60.000000, 126.000000)">
                <mask id="mask-2" fill="white">
                    <use xlink:href="#path-1"></use>
                </mask>
                <g id="Lockup"></g>
                <g id="Color-/-Peppercorn" mask="url(#mask-2)" fill="#241C15" fill-rule="evenodd">
                    <rect id="Color" x="0" y="0" width="130" height="40"></rect>
                </g>
            </g>
        </g>
    </g>
</svg>